<svg version="1.1" xmlns="http://www.w3.org/2000/svg" xmlns:xlink="http://www.w3.org/1999/xlink" width="70.13679" height="91.7816" viewBox="0,0,70.13679,91.7816"><g transform="translate(-203.55028,-121.3097)"><g data-paper-data="{&quot;isPaintingLayer&quot;:true}" fill-rule="nonzero" stroke-linecap="butt" stroke-linejoin="miter" stroke-miterlimit="10" stroke-dasharray="" stroke-dashoffset="0" style="mix-blend-mode: normal"><g><path d="M244.39804,161.83286l-0.35899,-39.12977c0,0 22.91683,7.66806 23.33427,8.25674c3.81911,5.38592 4.66685,31.23202 4.66685,31.23202z" fill="#ffffff" stroke="#000000" stroke-width="2"/><path d="M204.55029,212.09129v-88.31122l46.04585,-0.35899l3.49715,27.64213c0,0 14.99272,-10.44095 17.48577,-1.79494c2.49305,8.64601 0,62.82303 0,62.82303z" fill="#f7f7f7" stroke="#000000" stroke-width="2"/><path d="M226.51372,180.51605c0,-1.53351 1.53351,-1.53351 1.53351,-1.53351h1.10103c0.44291,0.00494 0.88796,0.05854 1.32873,0.01483c3.28423,-0.32567 1.1599,-3.23541 0.89585,-4.87626c-0.11049,-0.68658 0.10731,-1.3897 0.23932,-2.07246c0.4232,-2.18886 1.39417,-4.73142 3.45644,-5.89629c1.22013,-0.68919 2.75451,-0.51754 4.12854,-0.79273c0,0 1.50373,-0.30075 1.80447,1.20298c0.30075,1.50373 -1.20298,1.80447 -1.20298,1.80447c-1.1113,0.22196 -2.33818,0.0352 -3.35843,0.5285c-0.73349,0.35465 -1.2568,1.93519 -1.4464,2.45479c-0.00709,0.01943 -0.639,2.10378 -0.58317,2.34833c0.14516,0.63584 0.65976,1.14113 0.83568,1.76916c0.63433,2.26457 -0.13133,4.67678 -2.23751,5.92946c-1.33757,0.79554 -2.4318,0.64015 -3.86055,0.65223h-1.10103c0,0 -1.53351,0.00001 -1.53351,-1.5335z" fill="#00d0f5" stroke="none" stroke-width="0.5"/><path d="M241.48766,171.70786c0,-0.84694 0.68657,-1.53351 1.5335,-1.53351c0.84694,0 1.53351,0.68658 1.53351,1.53351c0,0.84694 -0.68658,1.5335 -1.53351,1.5335c-0.84694,0 -1.5335,-0.68657 -1.5335,-1.5335z" fill="#000000" stroke="none" stroke-width="0.5"/><path d="M240.82704,180.73626c0,-0.84694 0.68657,-1.53351 1.53351,-1.53351c0.84694,0 1.53351,0.68658 1.53351,1.53351c0,0.84694 -0.68657,1.5335 -1.53351,1.5335c-0.84694,0 -1.53351,-0.68657 -1.53351,-1.5335z" fill="#000000" stroke="none" stroke-width="0.5"/><path d="M211.02313,158.54099c0,-0.58122 0.47117,-1.05239 1.05239,-1.05239c0.58122,0 1.0524,0.47117 1.0524,1.05239c0,0.58122 -0.47118,1.0524 -1.0524,1.0524c-0.58122,0 -1.05239,-0.47118 -1.05239,-1.0524z" fill="#0092ff" stroke="none" stroke-width="0.5"/><path d="M243.96971,159.452c0,1.01748 -1.01749,1.01748 -1.01749,1.01748h-0.58442c-1.81214,-0.00423 -3.58414,-0.29221 -5.40594,-0.29221c-0.35337,0 -0.58401,-0.12272 -0.73456,-0.28293c-0.1602,-0.15054 -0.28293,-0.38119 -0.28293,-0.73456c0,-0.02467 0.0006,-0.04874 0.00176,-0.07223c-0.1318,-1.14788 -0.14499,-2.31405 -0.14693,-3.47704c-0.2357,-0.0551 -0.46617,-0.12151 -0.6683,-0.24921c-2.70615,-1.70965 -1.25448,-4.16805 0.66736,-5.52249v-0.02986c0,-1.61863 0.14851,-3.20191 0.14612,-4.81671c0,-0.0016 -0.00001,-0.0032 -0.00001,-0.0048c0,-0.35337 0.12273,-0.58402 0.28293,-0.73456c0.15054,-0.1602 0.38119,-0.28293 0.73456,-0.28293h0.58443c1.90337,0 3.79027,0.06711 5.67825,0.30007c0,0 1.00963,0.1262 0.88343,1.13583c-0.1262,1.00963 -1.13584,0.88343 -1.13584,0.88343c-1.66492,-0.2111 -3.33309,-0.27484 -5.01046,-0.28333c-0.03891,1.2684 -0.12843,2.52333 -0.12843,3.803v0.41604c0.06201,0.28133 -0.01708,0.51106 -0.13028,0.68325c-0.09323,0.18349 -0.25318,0.36592 -0.52759,0.45179c-0.7042,0.41295 -2.42941,1.5604 -1.01247,2.24738c0.18538,0.08988 0.39343,0.11668 0.59816,0.15268c0.0179,-0.00066 0.03612,-0.00101 0.05469,-0.00101c0.35337,0 0.58401,0.12273 0.73456,0.28293c0.1602,0.15054 0.28293,0.38118 0.28293,0.73456c0,0.00279 -0.00001,0.00557 -0.00003,0.00834c-0.00311,1.11379 -0.0282,2.26557 0.06177,3.38056c1.4978,0.06983 2.97547,0.27305 4.47281,0.26902h0.58442c0,0 1.01749,0.00001 1.01749,1.01749z" fill="#e8ff00" stroke="none" stroke-width="0.5"/><path d="M213.87435,201.79902h0.58442c1.49734,0.00403 2.97501,-0.19919 4.47281,-0.26902c0.08997,-1.11499 0.06488,-2.26677 0.06177,-3.38056c-0.00001,-0.00278 -0.00002,-0.00555 -0.00002,-0.00834c0,-0.35337 0.12273,-0.58402 0.28293,-0.73456c0.15054,-0.1602 0.38119,-0.28293 0.73456,-0.28293c0.01857,0 0.03679,0.00034 0.05469,0.001c0.20474,-0.036 0.41278,-0.06279 0.59817,-0.15267c1.41693,-0.68698 -0.30828,-1.83444 -1.01247,-2.24738c-0.27442,-0.08587 -0.43436,-0.26829 -0.52759,-0.45179c-0.11319,-0.17219 -0.19228,-0.40193 -0.13028,-0.68326v-0.41604c0,-1.27967 -0.08952,-2.5346 -0.12843,-3.803c-1.67737,0.00849 -3.34554,0.07223 -5.01046,0.28333c0,0 -1.00963,0.12621 -1.13584,-0.88342c-0.1262,-1.00963 0.88343,-1.13584 0.88343,-1.13584c1.88798,-0.23296 3.77488,-0.30006 5.67825,-0.30006h0.58443c0.35337,0 0.58401,0.12272 0.73456,0.28293c0.1602,0.15054 0.28293,0.38119 0.28293,0.73456c0,0.0016 -0.00001,0.0032 -0.00001,0.0048c-0.00239,1.6148 0.14612,3.19809 0.14612,4.81672v0.02986c1.92185,1.35443 3.37351,3.81283 0.66736,5.52248c-0.20212,0.12769 -0.43259,0.1941 -0.6683,0.2492c-0.00195,1.16298 -0.01514,2.32916 -0.14694,3.47704c0.00117,0.02348 0.00177,0.04756 0.00177,0.07223c0,0.35337 -0.12273,0.58401 -0.28293,0.73456c-0.15054,0.1602 -0.38119,0.28293 -0.73456,0.28293c-1.82181,0 -3.5938,0.28798 -5.40594,0.29221h-0.58442c0,0 -1.01749,0 -1.01749,-1.01749c0,-1.01748 1.01749,-1.01748 1.01749,-1.01748z" data-paper-data="{&quot;index&quot;:null}" fill="#e8ff00" stroke="none" stroke-width="0.5"/><path d="M219.5726,149.06713c0.17308,0 0.32358,0.02258 0.45444,0.06185c1.60738,-0.49949 3.91887,-2.13234 3.74892,-3.75515c-0.08697,-0.83047 -0.7858,-1.47387 -1.20008,-2.19886c-0.71732,-1.814 -1.18841,-1.91621 -2.9374,-1.57563c-0.74176,0.14444 -1.79693,-0.33653 -2.25127,0.26733c-0.12538,0.16665 0.07321,0.41209 0.07982,0.62053c0.05515,1.73888 0.02305,3.37966 0.1876,5.11131c0.05418,0.57012 0.09414,1.14066 0.12347,1.71151c0.47533,-0.0679 0.95067,-0.13581 1.426,-0.20371c0.10977,-0.02516 0.23213,-0.03917 0.3685,-0.03917zM218.03638,161.13147c0,0 0.1201,1.32112 -1.20102,1.44122c-1.32112,0.1201 -1.44122,-1.20102 -1.44122,-1.20102c-0.45697,-5.062 -0.27823,-10.2088 -0.57489,-15.28587c-0.08458,-1.44762 -0.51302,-4.63066 0.46211,-5.83301c1.01217,-1.24802 2.52285,-1.01644 3.84438,-1.25658c0.53812,-0.09779 1.04321,-0.42587 1.58979,-0.40599c2.28115,0.08299 3.39453,1.54611 4.23531,3.40209c0.40139,0.70243 1.43252,2.35659 1.46676,3.13483c0.15271,3.47086 -3.61786,6.27373 -6.6574,6.77027l-0.16769,-0.16653c-0.58046,0.08292 -1.16091,0.16584 -1.74137,0.24877c0.02575,3.05192 -0.09353,6.10792 0.18524,9.15182z" fill="#0092ff" stroke="none" stroke-width="0.5"/><path d="M256.74408,174.94293c-2,1.5 -3.5,-0.5 -3.5,-0.5l-1.20083,-1.75585c-1.54585,-1.01677 -1.51953,-0.13928 -1.59179,1.62226c-0.11091,2.70381 0.01216,5.44763 0.01216,8.15419c0,0 0,2.5 -2.5,2.5c-2.5,0 -2.5,-2.5 -2.5,-2.5c0,-4.54987 -1.78957,-14.41509 4.97237,-15.35923c1.62456,-0.22683 3.09913,1.07613 4.64869,1.61419l2.15939,2.72444c0,0 1.5,2 -0.5,3.5z" fill="#f5a700" stroke="none" stroke-width="0.5"/><path d="M256.49571,179.89388c-0.79057,2.37171 -3.16228,1.58114 -3.16228,1.58114l-0.88954,-0.43174c-0.93339,0 -1.86678,0 -2.80017,0c0,0 -2.5,0 -2.5,-2.5c0,-2.5 2.5,-2.5 2.5,-2.5c0.93339,0 1.86678,0 2.80017,0l2.47067,0.68833c0,0 2.37171,0.79057 1.58114,3.16228z" fill="#f5a700" stroke="none" stroke-width="0.5"/></g></g></g></svg>